<?xml version="1.0" encoding="utf-8"?>
<!DOCTYPE svg PUBLIC "-//W3C//DTD SVG 1.1//EN" "http://www.w3.org/Graphics/SVG/1.1/DTD/svg11.dtd">
<svg version="1.1" id="Layer_1" xmlns="http://www.w3.org/2000/svg" xmlns:xlink="http://www.w3.org/1999/xlink" x="0px" y="0px"
	 width="50px" height="50px" viewBox="0 0 322 246" enable-background="new 0 0 322 246" xml:space="preserve">
<g>
	<path fill="#0F3254" d="M269.445,149.245h-0.052H60.659h-0.053l0.051,0.028c-0.06,1.184-2.882,61.059,43.517,61.059h66.475
		l0.395-0.244l0.442,0.244h54.394c46.343,0,43.583-59.733,43.516-61.056L269.445,149.245z"/>
	<path fill="#0F3254" d="M273.368,119.12H82.838V52.101c-0.001-1.038,0.149-2.007,0.395-2.832c0.357-1.243,0.955-2.128,1.341-2.489
		c0.147-0.144,0.236-0.2,0.283-0.226h35.891c0.058,0.035,0.163,0.108,0.311,0.256c0.323,0.318,0.788,0.983,1.13,1.913
		c0.347,0.927,0.576,2.101,0.575,3.377v6.328c-10.901,2.637-19,12.452-19,24.164h49.731c0-11.287-7.521-20.811-17.824-23.849v-6.643
		c-0.001-2.262-0.32-4.443-0.923-6.487c-0.912-3.061-2.437-5.845-4.714-8.079c-1.141-1.111-2.485-2.078-4.037-2.777
		c-1.547-0.699-3.309-1.113-5.121-1.11H84.727c-2.424-0.006-4.73,0.739-6.604,1.894c-1.415,0.866-2.618,1.949-3.632,3.154
		c-1.521,1.812-2.635,3.899-3.396,6.158c-0.76,2.261-1.162,4.703-1.163,7.248v67.019H56.633c-6.56,0-11.926,5.366-11.926,11.924
		c0,6.559,5.366,11.925,11.926,11.925h216.735c6.559,0,11.925-5.366,11.925-11.925C285.293,124.486,279.927,119.12,273.368,119.12z"
		/>
	<path fill="#0F3254" d="M120.213,88.601c0,1.289-1.044,2.333-2.333,2.333s-2.334-1.044-2.334-2.333s1.045-2.333,2.334-2.333
		S120.213,87.312,120.213,88.601"/>
	<path fill="#0F3254" d="M120.213,95.601c0,1.289-1.044,2.333-2.333,2.333s-2.334-1.044-2.334-2.333s1.045-2.333,2.334-2.333
		S120.213,94.312,120.213,95.601"/>
	<path fill="#0F3254" d="M120.213,102.267c0,1.289-1.044,2.333-2.333,2.333s-2.334-1.044-2.334-2.333s1.045-2.333,2.334-2.333
		S120.213,100.978,120.213,102.267"/>
	<path fill="#0F3254" d="M120.213,109.267c0,1.289-1.044,2.333-2.333,2.333s-2.334-1.044-2.334-2.333s1.045-2.333,2.334-2.333
		S120.213,107.978,120.213,109.267"/>
	<path fill="#0F3254" d="M128.219,88.601c0,1.289-1.043,2.333-2.332,2.333s-2.334-1.044-2.334-2.333s1.045-2.333,2.334-2.333
		S128.219,87.312,128.219,88.601"/>
	<path fill="#0F3254" d="M128.219,95.601c0,1.289-1.043,2.333-2.332,2.333s-2.334-1.044-2.334-2.333s1.045-2.333,2.334-2.333
		S128.219,94.312,128.219,95.601"/>
	<path fill="#0F3254" d="M128.219,102.267c0,1.289-1.043,2.333-2.332,2.333s-2.334-1.044-2.334-2.333s1.045-2.333,2.334-2.333
		S128.219,100.978,128.219,102.267"/>
	<path fill="#0F3254" d="M128.219,109.267c0,1.289-1.043,2.333-2.332,2.333s-2.334-1.044-2.334-2.333s1.045-2.333,2.334-2.333
		S128.219,107.978,128.219,109.267"/>
	<path fill="#0F3254" d="M136.226,88.601c0,1.289-1.044,2.333-2.333,2.333s-2.334-1.044-2.334-2.333s1.045-2.333,2.334-2.333
		S136.226,87.312,136.226,88.601"/>
	<path fill="#0F3254" d="M136.226,95.601c0,1.289-1.044,2.333-2.333,2.333s-2.334-1.044-2.334-2.333s1.045-2.333,2.334-2.333
		S136.226,94.312,136.226,95.601"/>
	<path fill="#0F3254" d="M136.226,102.267c0,1.289-1.044,2.333-2.333,2.333s-2.334-1.044-2.334-2.333s1.045-2.333,2.334-2.333
		S136.226,100.978,136.226,102.267"/>
	<path fill="#0F3254" d="M136.226,109.267c0,1.289-1.044,2.333-2.333,2.333s-2.334-1.044-2.334-2.333s1.045-2.333,2.334-2.333
		S136.226,107.978,136.226,109.267"/>
	<path fill="#0F3254" d="M143.231,88.601c0,1.289-1.045,2.333-2.333,2.333c-1.289,0-2.334-1.044-2.334-2.333
		s1.045-2.333,2.334-2.333C142.187,86.268,143.231,87.312,143.231,88.601"/>
	<path fill="#0F3254" d="M143.231,95.601c0,1.289-1.045,2.333-2.333,2.333c-1.289,0-2.334-1.044-2.334-2.333
		s1.045-2.333,2.334-2.333C142.187,93.268,143.231,94.312,143.231,95.601"/>
	<path fill="#0F3254" d="M143.231,102.267c0,1.289-1.045,2.333-2.333,2.333c-1.289,0-2.334-1.044-2.334-2.333
		s1.045-2.333,2.334-2.333C142.187,99.934,143.231,100.978,143.231,102.267"/>
	<path fill="#0F3254" d="M143.231,109.267c0,1.289-1.045,2.333-2.333,2.333c-1.289,0-2.334-1.044-2.334-2.333
		s1.045-2.333,2.334-2.333C142.187,106.934,143.231,107.978,143.231,109.267"/>
</g>
</svg>
