<?xml version="1.0" encoding="utf-8"?>
<!DOCTYPE svg PUBLIC "-//W3C//DTD SVG 1.1//EN" "http://www.w3.org/Graphics/SVG/1.1/DTD/svg11.dtd">
<svg version="1.1" id="Layer_1" xmlns="http://www.w3.org/2000/svg" xmlns:xlink="http://www.w3.org/1999/xlink" x="0px" y="0px"
	 width="50px" height="50px" viewBox="0 0 322 246" enable-background="new 0 0 322 246" xml:space="preserve">
<g>
	<polygon fill="#0F3254" points="276.853,64 276.853,111.282 47.146,111.282 47.146,64 19.113,64 19.113,171.95 47.146,171.95 
		47.146,136.386 276.853,136.386 276.853,171.95 304.887,171.95 304.887,64 	"/>
	<path fill="#0F3254" d="M262.74,77.626c0-3.682-3.013-6.695-6.694-6.695c-3.683,0-6.695,3.013-6.695,6.695v17.573h-79.608
		c0.002-0.095,0.015-0.188,0.015-0.284V82.933c0-6.6-5.4-12-12-12h-38.762c-6.599,0-12,5.4-12,12v11.983
		c0,0.096,0.012,0.188,0.015,0.284h-0.031v14.645h155.747V99.253c0.004-0.096,0.015-0.19,0.015-0.288V77.626z"/>
	<path fill="#0F3254" d="M72.669,79.645C72.669,71.557,79.225,65,87.313,65s14.645,6.557,14.645,14.645S95.401,94.29,87.313,94.29
		S72.669,87.733,72.669,79.645"/>
	<path fill="#0F3254" d="M96.494,99.881l-29.558-9.495l-1.351-0.418c-5.523,0-10.042,4.519-10.042,10.042
		c0,5.523,4.519,10.042,10.042,10.042h29.288l0.02,0.001h5.186c0.035-0.511,0.024-1.287,0.024-2.48
		C100.103,104.493,98.695,101.727,96.494,99.881"/>
</g>
</svg>
